control3min_grf.mot
version=1
nRows=20
nColumns 19
inDegrees=yes
endheader
time	1_ground_force_vx	1_ground_force_vy	1_ground_force_vz	1_ground_force_px	1_ground_force_py	1_ground_force_pz	1_ground_torque_x	1_ground_torque_y	1_ground_torque_z	2_ground_force_vx	2_ground_force_vy	2_ground_force_vz	2_ground_force_px	2_ground_force_py	2_ground_force_pz	2_ground_torque_x	2_ground_torque_y	2_ground_torque_z
            0.005000	            7.077185	          622.347129	          -55.404296	           -0.177950	            0.006132	           -0.381784	            0.009511	            0.836348	           -0.074456	           -6.588769	          875.836449	           95.294556	           -0.167167	            0.005919	           -0.708623	           -0.014253	            1.894577	            0.206138
            0.005500	            6.708052	          629.199181	          -55.832572	           -0.178263	            0.006132	           -0.381728	            0.003708	            0.347774	           -0.030860	           -7.277864	          885.219993	           96.923900	           -0.167229	            0.005919	           -0.708805	           -0.016118	            1.960518	            0.214660
            0.006000	            6.567434	          636.773201	          -56.487609	           -0.178555	            0.006131	           -0.381453	            0.000601	            0.058282	           -0.005170	           -7.400169	          893.317023	           98.407630	           -0.167314	            0.005919	           -0.708698	           -0.016275	            1.964618	            0.216422
            0.006500	            6.380130	          642.726878	          -57.608040	           -0.178347	            0.006131	           -0.381644	            0.002366	            0.238325	           -0.021361	           -7.242164	          901.600151	           99.610313	           -0.167394	            0.005919	           -0.708784	           -0.016140	            2.009291	            0.221990
            0.007000	            6.283176	          649.764072	          -59.182628	           -0.178496	            0.006130	           -0.381355	            0.007222	            0.746872	           -0.068028	           -7.318969	          910.065799	          101.048400	           -0.167483	            0.005919	           -0.708955	           -0.016257	            2.021469	            0.224452
            0.007500	            6.646053	          655.357386	          -60.305970	           -0.178528	            0.006131	           -0.381634	            0.012228	            1.205767	           -0.110955	           -7.583859	          918.715018	          102.440304	           -0.167696	            0.005919	           -0.709007	           -0.017557	            2.126885	            0.237156
            0.008000	            7.100482	          662.933093	          -61.329334	           -0.178667	            0.006130	           -0.381389	            0.013092	            1.222315	           -0.113079	           -7.986518	          926.626284	          104.111193	           -0.167841	            0.005918	           -0.709040	           -0.019683	            2.283735	            0.256589
            0.008500	            7.510650	          668.704034	          -61.855894	           -0.178728	            0.006131	           -0.381521	            0.008734	            0.777610	           -0.071930	           -8.201756	          934.537937	          105.828938	           -0.167978	            0.005918	           -0.709132	           -0.020992	            2.391922	            0.270866
            0.009000	            7.829180	          674.835353	          -62.334828	           -0.178939	            0.006132	           -0.381693	            0.003447	            0.297142	           -0.027447	           -7.997421	          943.004265	          107.360763	           -0.168000	            0.005918	           -0.709195	           -0.020514	            2.418828	            0.275383
            0.009500	            8.101753	          680.966737	          -62.859501	           -0.179162	            0.006132	           -0.381691	            0.003657	            0.307389	           -0.028375	           -7.646699	          949.814945	          108.558125	           -0.168132	            0.005918	           -0.709217	           -0.019972	            2.480827	            0.283544
            0.010000	            8.052316	          688.181287	          -63.745587	           -0.179304	            0.006130	           -0.381289	            0.007347	            0.627944	           -0.058166	           -6.740362	          958.468559	          109.902595	           -0.168232	            0.005917	           -0.709221	           -0.016945	            2.409499	            0.276285
            0.010500	            7.910109	          693.235187	          -65.236844	           -0.179283	            0.006131	           -0.381566	            0.012795	            1.121378	           -0.105527	           -6.255051	          966.936907	          111.152731	           -0.168591	            0.005917	           -0.709377	           -0.015180	            2.346556	            0.269745
            0.011000	            8.364329	          700.090544	          -66.400855	           -0.179196	            0.006130	           -0.381387	            0.017538	            1.467963	           -0.139231	           -5.670641	          973.931675	          112.585283	           -0.168573	            0.005917	           -0.709401	           -0.014030	            2.409580	            0.278544
            0.011500	            8.864573	          705.323563	          -67.617805	           -0.179401	            0.006131	           -0.381539	            0.016513	            1.313919	           -0.125963	           -5.184001	          982.031741	          113.834105	           -0.168781	            0.005916	           -0.709354	           -0.013071	            2.476018	            0.287012
            0.012000	            9.135762	          712.178295	          -68.643804	           -0.179630	            0.006130	           -0.381370	            0.010356	            0.807311	           -0.077813	           -4.786305	          988.841586	          115.313001	           -0.168951	            0.005915	           -0.709412	           -0.012725	            2.629062	            0.306586
            0.012500	            9.591527	          718.670503	          -69.213238	           -0.179759	            0.006130	           -0.381293	            0.004815	            0.360780	           -0.034746	           -4.251986	          996.756280	          116.936571	           -0.169028	            0.005915	           -0.709493	           -0.011472	            2.689237	            0.315494
            0.013000	           10.276558	          724.261594	          -69.832974	           -0.179848	            0.006130	           -0.381312	            0.007532	            0.530846	           -0.051184	           -3.014295	         1004.489767	          118.465329	           -0.169119	            0.005915	           -0.709473	           -0.007966	            2.654512	            0.313062
            0.013500	           10.457544	          729.852194	          -70.359738	           -0.179878	            0.006130	           -0.381373	            0.013916	            0.971203	           -0.093627	           -1.775377	         1011.855688	          119.758139	           -0.169337	            0.005914	           -0.709520	           -0.004660	            2.656058	            0.314358
            0.014000	           11.187555	          735.805262	          -71.299021	           -0.179937	            0.006130	           -0.381314	            0.023040	            1.515357	           -0.146837	           -0.723380	         1019.038358	          120.628012	           -0.169477	            0.005914	           -0.709581	           -0.001837	            2.587628	            0.306309
            0.014500	           11.458794	          741.758832	          -72.374738	           -0.179993	            0.006129	           -0.381247	            0.026234	            1.698192	           -0.165696	            0.513065	         1027.139335	          122.345796	           -0.169782	            0.005914	           -0.709735	            0.001254	            2.510648	            0.299051
